<svg width="28" height="30" viewBox="0 0 28 30" fill="none" xmlns="http://www.w3.org/2000/svg">
	<path fill-rule="evenodd" clip-rule="evenodd" d="M24.5 3H18.23C17.6 1.26 15.95 0 14 0C12.05 0 10.4 1.26 9.77 3H3.5C1.85 3 0.5 4.35 0.5 6V27C0.5 28.65 1.85 30 3.5 30H24.5C26.15 30 27.5 28.65 27.5 27V6C27.5 4.35 26.15 3 24.5 3ZM14 3C14.825 3 15.5 3.675 15.5 4.5C15.5 5.325 14.825 6 14 6C13.175 6 12.5 5.325 12.5 4.5C12.5 3.675 13.175 3 14 3ZM17 24H6.5V21H17V24ZM21.5 18H6.5V15H21.5V18ZM21.5 12H6.5V9H21.5V12Z" fill="#3D3D3D" />
</svg>
