<svg width="24" height="24" viewBox="0 0 24 24" fill="none" xmlns="http://www.w3.org/2000/svg">
	<path d="M16.1045 8.73388C16.1045 11.0019 14.2661 13.7331 12.0005 13.7331C9.73488 13.7331 7.89648 11.0019 7.89648 8.73388C7.89648 8.19494 8.00264 7.66127 8.20888 7.16335C8.41513 6.66543 8.71743 6.21301 9.09852 5.83192C9.47961 5.45082 9.93203 5.14853 10.43 4.94228C10.9279 4.73604 11.4615 4.62988 12.0005 4.62988C12.5394 4.62988 13.0731 4.73604 13.571 4.94228C14.0689 5.14853 14.5214 5.45082 14.9025 5.83192C15.2835 6.21301 15.5858 6.66543 15.7921 7.16335C15.9983 7.66127 16.1045 8.19494 16.1045 8.73388Z" fill="white" />
	<path d="M19.7908 20.6084C19.7908 20.9132 15.7108 23.6612 12.0004 23.6612C8.35716 23.6612 4.20996 21.1196 4.20996 20.6084C4.20996 17.2628 8.65476 14.5508 12.0004 14.5508C15.346 14.5508 19.7908 17.2628 19.7908 20.6084Z" fill="white" />
	<path d="M12.0002 23.9998C9.22996 24.0014 6.54448 23.0445 4.39946 21.2915C2.25444 19.5384 0.782014 17.0972 0.232041 14.3821C-0.317932 11.667 0.0884248 8.84528 1.38216 6.39568C2.67589 3.94609 4.7773 2.01956 7.3298 0.942997C10.2622 -0.295669 13.5666 -0.318694 16.5161 0.878988C19.4655 2.07667 21.8183 4.39695 23.057 7.3294C24.2957 10.2618 24.3187 13.5662 23.121 16.5157C21.9233 19.4651 19.603 21.8179 16.6706 23.0566C15.1933 23.6825 13.6047 24.0033 12.0002 23.9998ZM12.0002 1.0486C9.83426 1.0486 7.71696 1.69087 5.91604 2.89421C4.11512 4.09754 2.71148 5.80788 1.88261 7.80895C1.05374 9.81002 0.83687 12.0119 1.25942 14.1363C1.68198 16.2606 2.72498 18.2119 4.25653 19.7435C5.78809 21.275 7.7394 22.318 9.86373 22.7406C11.9881 23.1631 14.19 22.9463 16.191 22.1174C18.1921 21.2885 19.9025 19.8849 21.1058 18.084C22.3091 16.283 22.9514 14.1657 22.9514 11.9998C22.9482 9.09633 21.7934 6.3127 19.7404 4.25964C17.6873 2.20658 14.9037 1.05177 12.0002 1.0486Z" fill="white" />
</svg>
